<?xml version="1.0" encoding="iso-8859-1"?>
<!-- Uploaded to: SVG Repo, www.svgrepo.com, Generator: SVG Repo Mixer Tools -->
<svg fill="#000000" version="1.1" id="Layer_1" xmlns="http://www.w3.org/2000/svg" xmlns:xlink="http://www.w3.org/1999/xlink" 
	 viewBox="0 0 512 512" xml:space="preserve">
<g>
	<g>
		<path d="M459.216,184.742V77.792l-3.521-2.351L348.234,0H52.783v184.742H26.392v205.856h26.392V512h406.433V390.598h26.392
			V184.742H459.216z M353.649,23.151l72.278,50.746h-72.278V23.151z M68.618,15.835h269.196v73.897h105.567v95.01H68.618V15.835z
			 M443.381,496.165H68.618V390.598h374.763V496.165z M469.773,374.763H42.227V200.577h427.546V374.763z"/>
	</g>
</g>
<g>
	<g>
		<path d="M200.577,95.01V58.062h-52.784V36.948H89.732V95.01h58.062V73.897h36.948V95.01h-21.113v58.062h58.062V95.01H200.577z
			 M131.959,79.175h-26.392V52.784h26.392V79.175z M205.856,137.237h-26.392v-26.392h26.392V137.237z"/>
	</g>
</g>
<g>
	<g>
		<rect x="113.485" y="432.825" width="285.031" height="15.835"/>
	</g>
</g>
<g>
	<g>
		<rect x="435.464" y="216.412" width="21.113" height="15.835"/>
	</g>
</g>
<g>
	<g>
		<rect x="435.464" y="343.093" width="21.113" height="15.835"/>
	</g>
</g>
<g>
	<g>
		<rect x="55.423" y="343.093" width="21.113" height="15.835"/>
	</g>
</g>
<g>
	<g>
		<rect x="55.423" y="216.412" width="21.113" height="15.835"/>
	</g>
</g>
<g>
	<g>
		<path d="M235.065,226.969h-42.584l-44.169,115.944l14.798,5.637l18.166-47.685h64.994l18.166,47.685l14.798-5.637L235.065,226.969
			z M187.309,285.031l16.086-42.227h20.757l16.086,42.227H187.309z"/>
	</g>
</g>
<g>
	<g>
		<rect x="295.588" y="224.33" width="15.835" height="126.68"/>
	</g>
</g>
</svg>